<svg width="13" height="14" viewBox="0 0 13 14" fill="none" xmlns="http://www.w3.org/2000/svg">
<path d="M2.83916 4.43813V13.4661H0.42782V4.43813H2.83916ZM0.277633 2.08519C0.277633 1.73475 0.400008 1.4455 0.644758 1.21744C0.889508 0.989376 1.2177 0.875345 1.62932 0.875345C2.03538 0.875345 2.36079 0.989376 2.60554 1.21744C2.85585 1.4455 2.98101 1.73475 2.98101 2.08519C2.98101 2.43563 2.85585 2.72488 2.60554 2.95294C2.36079 3.181 2.03538 3.29503 1.62932 3.29503C1.2177 3.29503 0.889508 3.181 0.644758 2.95294C0.400008 2.72488 0.277633 2.43563 0.277633 2.08519ZM7.51967 6.36553V13.4661H5.11667V4.43813H7.36949L7.51967 6.36553ZM7.16924 8.63503H6.51842C6.51842 7.96753 6.60464 7.36678 6.77708 6.83278C6.94952 6.29322 7.19149 5.83431 7.50299 5.45606C7.81449 5.07225 8.18439 4.78022 8.61271 4.57997C9.04658 4.37416 9.53052 4.27125 10.0645 4.27125C10.4873 4.27125 10.8739 4.33244 11.2243 4.45481C11.5747 4.57719 11.8751 4.77188 12.1254 5.03888C12.3813 5.30588 12.576 5.6591 12.7095 6.09853C12.8485 6.53797 12.9181 7.07475 12.9181 7.70888V13.4661H10.4984V7.70053C10.4984 7.30003 10.4428 6.98853 10.3315 6.76603C10.2203 6.54353 10.0562 6.38778 9.83924 6.29878C9.62786 6.20422 9.36642 6.15694 9.05492 6.15694C8.7323 6.15694 8.45139 6.22091 8.21221 6.34885C7.97858 6.47678 7.78389 6.65478 7.62814 6.88285C7.47796 7.10535 7.36392 7.36678 7.28605 7.66716C7.20817 7.96753 7.16924 8.29016 7.16924 8.63503Z" fill="#ffff"/>
</svg>
