<svg width="19" height="16" viewBox="0 0 19 16" fill="none" xmlns="http://www.w3.org/2000/svg">
<path d="M16.3463 4.18896C16.3576 4.34707 16.3576 4.50522 16.3576 4.66334C16.3576 9.48602 12.6869 15.0429 5.978 15.0429C3.91112 15.0429 1.99108 14.4443 0.375977 13.4052C0.669642 13.4391 0.951973 13.4504 1.25694 13.4504C2.96237 13.4504 4.53231 12.8744 5.78599 11.8918C4.18219 11.8579 2.83815 10.8075 2.37507 9.36181C2.60098 9.39567 2.82685 9.41827 3.06405 9.41827C3.39158 9.41827 3.71914 9.37307 4.02407 9.29405C2.35251 8.95519 1.09879 7.48693 1.09879 5.71371V5.66855C1.58443 5.93962 2.1492 6.10903 2.74776 6.13159C1.76514 5.47651 1.12139 4.35837 1.12139 3.09339C1.12139 2.41574 1.30206 1.79455 1.61833 1.25241C3.41414 3.46611 6.11352 4.91177 9.14039 5.06992C9.08393 4.79885 9.05003 4.51652 9.05003 4.23416C9.05003 2.22373 10.6764 0.58606 12.6981 0.58606C13.7485 0.58606 14.6972 1.02654 15.3636 1.73809C16.1881 1.57997 16.9787 1.27501 17.679 0.857127C17.4079 1.70423 16.8319 2.41577 16.0752 2.86752C16.8093 2.7885 17.5209 2.58515 18.1759 2.30282C17.679 3.02563 17.0578 3.66939 16.3463 4.18896V4.18896Z" fill="#fff"/>
</svg>
