<svg width="17" height="17" viewBox="0 0 17 17" fill="none" xmlns="http://www.w3.org/2000/svg">
<path d="M8.46595 4.66956C6.25485 4.66956 4.47138 6.45304 4.47138 8.66413C4.47138 10.8752 6.25485 12.6587 8.46595 12.6587C10.677 12.6587 12.4605 10.8752 12.4605 8.66413C12.4605 6.45304 10.677 4.66956 8.46595 4.66956ZM8.46595 11.2611C7.03708 11.2611 5.86895 10.0965 5.86895 8.66413C5.86895 7.23179 7.0336 6.06714 8.46595 6.06714C9.89829 6.06714 11.0629 7.23179 11.0629 8.66413C11.0629 10.0965 9.89481 11.2611 8.46595 11.2611V11.2611ZM13.5556 4.50616C13.5556 5.02417 13.1384 5.43788 12.6239 5.43788C12.1059 5.43788 11.6922 5.02069 11.6922 4.50616C11.6922 3.99163 12.1094 3.57444 12.6239 3.57444C13.1384 3.57444 13.5556 3.99163 13.5556 4.50616ZM16.2013 5.45179C16.1422 4.2037 15.8571 3.09815 14.9428 2.18729C14.0319 1.27644 12.9264 0.991357 11.6783 0.928779C10.392 0.855771 6.53645 0.855771 5.25013 0.928779C4.00552 0.987881 2.89997 1.27296 1.98563 2.18382C1.0713 3.09468 0.789697 4.20022 0.727119 5.44831C0.654111 6.73464 0.654111 10.5901 0.727119 11.8765C0.786221 13.1246 1.0713 14.2301 1.98563 15.141C2.89997 16.0518 4.00204 16.3369 5.25013 16.3995C6.53645 16.4725 10.392 16.4725 11.6783 16.3995C12.9264 16.3404 14.0319 16.0553 14.9428 15.141C15.8536 14.2301 16.1387 13.1246 16.2013 11.8765C16.2743 10.5901 16.2743 6.73812 16.2013 5.45179V5.45179ZM14.5395 13.2567C14.2683 13.9381 13.7434 14.463 13.0585 14.7377C12.0329 15.1444 9.59931 15.0506 8.46595 15.0506C7.33259 15.0506 4.89552 15.141 3.87341 14.7377C3.192 14.4665 2.66704 13.9416 2.39239 13.2567C1.98563 12.2311 2.0795 9.79749 2.0795 8.66413C2.0795 7.53077 1.98911 5.0937 2.39239 4.07159C2.66356 3.39019 3.18853 2.86522 3.87341 2.59058C4.89899 2.18382 7.33259 2.27769 8.46595 2.27769C9.59931 2.27769 12.0364 2.18729 13.0585 2.59058C13.7399 2.86175 14.2649 3.38671 14.5395 4.07159C14.9463 5.09718 14.8524 7.53077 14.8524 8.66413C14.8524 9.79749 14.9463 12.2346 14.5395 13.2567Z" fill="#fff"/>
</svg>
